<svg class="sprite-icons" xmlns="http://www.w3.org/2000/svg">

	<symbol id="icon-pallete">
		<!-- width="20" height="20" viewBox="0 0 20 20" -->
		<g fill="none" fill-rule="nonzero">
			<path fill="#83D9FF" d="M0 10C0 4.477 4.477 0 10 0s10 4.477 10 10-4.477 10-10 10S0 15.523 0 10zm10 5.98a5.98 5.98 0 1 0 0-11.96 5.98 5.98 0 0 0 0 11.96z"/>
			<path fill="#3FEFEF" d="M10 20v-4.02c.763 0 1.493-.143 2.164-.404l1.376 3.78A9.977 9.977 0 0 1 10 20z"/>
			<path fill="#1DD1D9" d="M12.164 15.576a5.984 5.984 0 0 0 1.86-1.152l2.585 3.081a10.001 10.001 0 0 1-3.07 1.85l-1.375-3.779z"/>
			<path fill="#17B5BA" d="M14.023 14.424a6.008 6.008 0 0 0 1.31-1.716l3.485 2.012a10.036 10.036 0 0 1-2.21 2.785l-2.585-3.08z"/>
			<path fill="#9BE058" d="M15.816 8.604l3.964-.699a10.008 10.008 0 0 1 .126 3.47l-3.964-.698a6.088 6.088 0 0 0-.126-2.073z"/>
			<path fill="#C0FF66" d="M15.012 6.736l3.485-2.012c.599.963 1.039 2.036 1.283 3.181l-3.964.699a5.951 5.951 0 0 0-.804-1.868z"/>
			<path fill="#FFDF46" d="M13.658 5.27l2.586-3.082c.887.71 1.65 1.568 2.253 2.536l-3.485 2.012a6.02 6.02 0 0 0-1.354-1.466z"/>
			<path fill="#FC3E81" d="M6.699.558A9.975 9.975 0 0 1 10 0v4.02c-.674 0-1.322.112-1.926.317L6.699.558z"/>
			<path fill="#F01054" d="M3.756 2.188A9.98 9.98 0 0 1 6.698.558l1.376 3.78a5.955 5.955 0 0 0-1.732.932L3.756 2.188z"/>
			<path fill="#7884EA" d="M1.503 4.724a10.056 10.056 0 0 1 2.253-2.536L6.342 5.27c-.529.409-.987.905-1.354 1.466L1.503 4.724z"/>
			<path fill="#1685FB" d="M.094 11.376l3.964-.699c.082.724.292 1.41.609 2.031L1.182 14.72a9.925 9.925 0 0 1-1.088-3.344z"/>
			<path fill="#43A3F9" d="M1.182 14.72l3.485-2.012c.33.65.776 1.23 1.31 1.716L3.39 17.505a10.041 10.041 0 0 1-2.209-2.785z"/>
			<path fill="#64BDFF" d="M3.391 17.505l2.586-3.08a5.98 5.98 0 0 0 1.859 1.151l-1.376 3.78a10.002 10.002 0 0 1-3.069-1.851z"/>
			<path fill="#4A5BE5" d="M.22 7.905a9.939 9.939 0 0 1 1.283-3.181l3.485 2.012a5.951 5.951 0 0 0-.804 1.868L.22 7.905z"/>
			<path fill="#1CC939" d="M15.333 12.708a5.95 5.95 0 0 0 .61-2.03l3.963.698a9.925 9.925 0 0 1-1.088 3.344l-3.485-2.012z"/>
			<path fill="#364EC6" d="M0 10c0-.719.076-1.42.22-2.095l3.964.699a5.995 5.995 0 0 0-.126 2.073l-3.964.699C.032 10.926 0 10.466 0 10z"/>
			<path fill="#F9B200" d="M11.926 4.337L13.302.558a9.976 9.976 0 0 1 2.942 1.63L13.658 5.27a5.96 5.96 0 0 0-1.732-.933z"/>
			<path fill="#FD6096" d="M10 4.02V0c1.157 0 2.268.196 3.302.558l-1.376 3.78A5.972 5.972 0 0 0 10 4.02z"/>
		</g>
	</symbol>

	<symbol id="icon-cart">
		<!-- width="16" height="19" viewBox="0 0 16 19" -->
		<g fill-rule="nonzero">
			<path d="M15.329 15.668l-.845-10.692a1.333 1.333 0 0 0-1.32-1.228h-1.67v-.075C11.494 1.648 9.854 0 7.838 0 5.82 0 4.18 1.648 4.18 3.673v.075H2.512c-.688 0-1.268.54-1.32 1.227L.346 15.67c-.065.856.23 1.709.812 2.339.581.63 1.405.991 2.26.991h8.84c.854 0 1.678-.361 2.26-.991.58-.63.876-1.483.81-2.34zM5.289 3.673a2.557 2.557 0 0 1 2.549-2.56 2.557 2.557 0 0 1 2.548 2.56v.075H5.29v-.075zm8.415 13.58c-.377.409-.891.634-1.447.634h-8.84c-.555 0-1.069-.225-1.446-.635a1.965 1.965 0 0 1-.52-1.496l.845-10.694a.218.218 0 0 1 .216-.201h1.669v1.37a.555.555 0 1 0 1.108 0v-1.37h5.097v1.37a.555.555 0 1 0 1.108 0v-1.37h1.67c.111 0 .206.088.215.202l.845 10.692a1.966 1.966 0 0 1-.52 1.497z"/>
			<path d="M10.185 9.163a.497.497 0 0 0-.737 0l-2.326 2.49-.895-.957a.497.497 0 0 0-.737 0 .586.586 0 0 0 0 .789l1.263 1.352a.503.503 0 0 0 .369.163.502.502 0 0 0 .368-.163l2.695-2.885a.586.586 0 0 0 0-.789z"/>
		</g>
	</symbol>

	<symbol id="icon-user">
		<!-- width="18" height="18" viewBox="0 0 18 18" -->
		<path fill="#FFF" fill-rule="nonzero" d="M15.364 11.636a8.965 8.965 0 0 0-3.42-2.145 5.201 5.201 0 0 0 2.26-4.288A5.209 5.209 0 0 0 9 0a5.209 5.209 0 0 0-5.203 5.203c0 1.777.896 3.349 2.26 4.288a8.965 8.965 0 0 0-3.42 2.145A8.941 8.941 0 0 0 0 18h1.406c0-4.187 3.407-7.594 7.594-7.594s7.594 3.407 7.594 7.594H18a8.941 8.941 0 0 0-2.636-6.364zM9 9a3.801 3.801 0 0 1-3.797-3.797A3.801 3.801 0 0 1 9 1.406a3.801 3.801 0 0 1 3.797 3.797A3.801 3.801 0 0 1 9 9z"/>
	</symbol>

	<symbol id="icon-close">
		<!-- width="13" height="13" viewBox="0 0 13 13" -->
		<path fill="#FFF" fill-rule="nonzero" d="M12.5 2.042l-1.2-1.2-4.8 4.8-4.8-4.8-1.2 1.2 4.8 4.8-4.8 4.8 1.2 1.2 4.8-4.8 4.8 4.8 1.2-1.2-4.8-4.8z" opacity=".305"/>
	</symbol>

	<symbol id="icon-arrow-right">
		<!-- width="12" height="20" viewBox="0 0 12 20" -->
		<path d="M11.674 9.22L2.584.32c-.21-.207-.49-.32-.79-.32-.299 0-.58.113-.79.32l-.67.655a1.08 1.08 0 0 0 0 1.547l7.634 7.474-7.642 7.482a1.076 1.076 0 0 0 0 1.547l.67.655c.21.206.49.32.79.32.3 0 .58-.114.79-.32l9.098-8.908c.21-.206.327-.482.326-.776 0-.294-.115-.57-.326-.776z"/>
	</symbol>

	<symbol id="icon-star">
		<!-- width="22" height="21" viewBox="0 0 22 21" -->
		<path d="M21.523 9.517c.433-.42.585-1.038.399-1.611a1.567 1.567 0 0 0-1.274-1.07l-5.327-.772a.696.696 0 0 1-.524-.38L12.415.877A1.569 1.569 0 0 0 11 0c-.604 0-1.147.336-1.414.876l-2.382 4.81a.696.696 0 0 1-.525.379l-5.327.771a1.567 1.567 0 0 0-1.274 1.07 1.558 1.558 0 0 0 .4 1.611l3.854 3.743c.164.16.24.39.2.615l-.909 5.285c-.08.465.042.918.344 1.275.47.556 1.29.725 1.945.382l4.764-2.496c.2-.104.45-.103.648 0l4.765 2.496c.231.122.479.183.734.183.465 0 .907-.206 1.21-.565.303-.357.425-.81.344-1.275l-.91-5.285a.693.693 0 0 1 .201-.615z"/>
	</symbol>

	<symbol id="icon-facebook">
		<!-- width="22" height="21" viewBox="0 0 22 21" -->
		<g clip-path="url(#clip0)">
			<path d="M21.0479 10.5C21.0479 4.70039 16.3983 0 10.6614 0C4.92447 0 0.274902 4.70039 0.274902 10.5C0.274902 15.7418 4.07246 20.0854 9.03849 20.8729V13.5352H6.4013V10.5H9.03849V8.18672C9.03849 5.55557 10.5883 4.10156 12.9618 4.10156C14.0978 4.10156 15.2866 4.30664 15.2866 4.30664V6.89062H13.9761C12.6859 6.89062 12.2843 7.70068 12.2843 8.53125V10.5H15.1649L14.7044 13.5352H12.2843V20.8729C17.2503 20.0854 21.0479 15.7418 21.0479 10.5Z"/>
		</g>
		<defs>
			<clipPath id="clip0">
				<rect width="20.7729" height="21" fill="white" transform="translate(0.274902)"/>
			</clipPath>
		</defs>
	</symbol>

	<symbol id="icon-twitter">
		<!-- width="22" height="21" viewBox="0 0 22 21" -->
		<path fill-rule="evenodd" clip-rule="evenodd" d="M11.283 0C5.54667 0 0.896484 4.70101 0.896484 10.5C0.896484 16.299 5.54667 21 11.283 21C17.0193 21 21.6694 16.299 21.6694 10.5C21.6694 4.70101 17.0193 0 11.283 0ZM10.9937 8.89786L10.9719 8.53454C10.9065 7.59286 11.4804 6.73275 12.3886 6.39908C12.7228 6.28045 13.2895 6.26562 13.66 6.36942C13.8053 6.41391 14.0814 6.56221 14.2775 6.69567L14.6335 6.94036L15.0258 6.81431C15.2438 6.74758 15.5344 6.63635 15.6652 6.56221C15.7887 6.49547 15.8976 6.4584 15.8976 6.48065C15.8976 6.6067 15.6288 7.03675 15.4036 7.27402C15.0985 7.60769 15.1857 7.63735 15.8032 7.41491C16.1737 7.28885 16.181 7.28885 16.1083 7.42974C16.0647 7.50388 15.8395 7.7634 15.5998 8.00067C15.1929 8.40848 15.1711 8.45297 15.1711 8.79405C15.1711 9.3205 14.9241 10.4179 14.6771 11.0185C14.2194 12.1455 13.2386 13.3096 12.2578 13.8954C10.8774 14.7185 9.03936 14.9261 7.49189 14.4441C6.97607 14.281 6.08972 13.8658 6.08972 13.7916C6.08972 13.7694 6.35853 13.7397 6.68546 13.7323C7.36838 13.7175 8.05131 13.5247 8.63251 13.1836L9.02483 12.9463L8.57439 12.7906C7.93506 12.5682 7.36112 12.0566 7.21582 11.5746C7.17222 11.4189 7.18676 11.4115 7.5936 11.4115L8.01498 11.4041L7.65899 11.2335C7.23761 11.0185 6.85256 10.6552 6.66367 10.2844C6.52563 10.0175 6.35127 9.34275 6.40212 9.29084C6.41665 9.2686 6.56922 9.31309 6.74358 9.37241C7.24488 9.55777 7.31026 9.51329 7.01966 9.20187C6.47477 8.63834 6.30768 7.80047 6.56922 7.00709L6.69273 6.65118L7.17222 7.13314C8.15302 8.10448 9.30817 8.68283 10.6304 8.85337L10.9937 8.89786Z"/>
	</symbol>

	<symbol id="icon-inst">
		<!-- width="22" height="21" viewBox="0 0 22 21" -->
		<path fill-rule="evenodd" clip-rule="evenodd" d="M10.904 0C5.16773 0 0.517578 4.70101 0.517578 10.5C0.517578 16.299 5.16773 21 10.904 21C16.6402 21 21.2904 16.299 21.2904 10.5C21.2904 4.70101 16.6402 0 10.904 0ZM8.6204 4.93383C9.21128 4.90664 9.40009 4.89999 10.9045 4.89999H10.9028C12.4077 4.89999 12.5958 4.90664 13.1867 4.93383C13.7764 4.96113 14.1792 5.05551 14.5323 5.19399C14.897 5.33691 15.2051 5.52825 15.5132 5.83975C15.8214 6.15102 16.0106 6.46346 16.1526 6.83178C16.2888 7.18785 16.3823 7.59479 16.41 8.19096C16.4365 8.7883 16.4434 8.97917 16.4434 10.5C16.4434 12.0209 16.4365 12.2113 16.41 12.8087C16.3823 13.4046 16.2888 13.8117 16.1526 14.1679C16.0106 14.5361 15.8214 14.8485 15.5132 15.1598C15.2055 15.4713 14.8969 15.6631 14.5326 15.8061C14.1802 15.9446 13.7772 16.039 13.1875 16.0663C12.5966 16.0935 12.4084 16.1001 10.9038 16.1001C9.39951 16.1001 9.21082 16.0935 8.61994 16.0663C8.03033 16.039 7.62768 15.9446 7.27523 15.8061C6.91113 15.6631 6.60207 15.4713 6.29428 15.1598C5.98627 14.8485 5.797 14.5361 5.6554 14.1677C5.51853 13.8117 5.42516 13.4047 5.39804 12.8086C5.37127 12.2112 5.36457 12.0209 5.36457 10.5C5.36457 8.97917 5.3715 8.78818 5.39793 8.19084C5.42447 7.5949 5.51795 7.18785 5.65528 6.83166C5.79723 6.46346 5.9865 6.15102 6.29463 5.83975C6.60253 5.52836 6.91159 5.33703 7.27593 5.19399C7.62814 5.05551 8.03068 4.96113 8.6204 4.93383Z"/>
		<path fill-rule="evenodd" clip-rule="evenodd" d="M10.4076 5.90911C10.5041 5.90896 10.6079 5.90901 10.7199 5.90906L10.9045 5.90911C12.3835 5.90911 12.5588 5.91448 13.1429 5.94132C13.683 5.96628 13.9761 6.05752 14.1714 6.13417C14.4299 6.23567 14.6142 6.357 14.808 6.553C15.0019 6.74901 15.1219 6.93568 15.2225 7.19701C15.2983 7.39418 15.3887 7.69052 15.4133 8.23652C15.4398 8.82686 15.4456 9.0042 15.4456 10.4987C15.4456 11.9932 15.4398 12.1706 15.4133 12.7609C15.3886 13.3069 15.2983 13.6032 15.2225 13.8004C15.1221 14.0617 15.0019 14.2478 14.808 14.4437C14.6141 14.6397 14.43 14.7611 14.1714 14.8626C13.9764 14.9396 13.683 15.0306 13.1429 15.0555C12.559 15.0824 12.3835 15.0882 10.9045 15.0882C9.42534 15.0882 9.25004 15.0824 8.66609 15.0555C8.12599 15.0303 7.83286 14.9391 7.63748 14.8624C7.37897 14.7609 7.19432 14.6396 7.00044 14.4436C6.80655 14.2476 6.68653 14.0614 6.5859 13.7999C6.51008 13.6028 6.41971 13.3064 6.39513 12.7604C6.36859 12.1701 6.36328 11.9928 6.36328 10.4973C6.36328 9.00186 6.36859 8.82546 6.39513 8.23512C6.41983 7.68912 6.51008 7.39278 6.5859 7.19538C6.6863 6.93404 6.80655 6.74737 7.00044 6.55137C7.19432 6.35537 7.37897 6.23403 7.63748 6.1323C7.83274 6.0553 8.12599 5.9643 8.66609 5.93922C9.17711 5.91588 9.37514 5.90888 10.4076 5.90771V5.90911ZM13.8614 6.83897C13.4944 6.83897 13.1967 7.13978 13.1967 7.5111C13.1967 7.8823 13.4944 8.18346 13.8614 8.18346C14.2284 8.18346 14.5262 7.8823 14.5262 7.5111C14.5262 7.1399 14.2284 6.83874 13.8614 6.83874V6.83897ZM8.05975 10.5009C8.05975 8.91269 9.33342 7.62505 10.9044 7.62499C12.4754 7.62499 13.7488 8.91265 13.7488 10.5009C13.7488 12.0891 12.4755 13.3761 10.9045 13.3761C9.33348 13.3761 8.05975 12.0891 8.05975 10.5009Z"/>
		<path d="M10.9046 8.6333C11.9243 8.6333 12.7511 9.46899 12.7511 10.5C12.7511 11.5309 11.9243 12.3667 10.9046 12.3667C9.88476 12.3667 9.05811 11.5309 9.05811 10.5C9.05811 9.46899 9.88476 8.6333 10.9046 8.6333Z"/>
	</symbol>

</svg>